<?xml version="1.0" encoding="UTF-8" standalone="no"?>
<!DOCTYPE svg PUBLIC "-//W3C//DTD SVG 1.1//EN" "http://www.w3.org/Graphics/SVG/1.1/DTD/svg11.dtd">
<svg width="100%" height="100%" viewBox="0 0 1280 1280" version="1.1" xmlns="http://www.w3.org/2000/svg" xmlns:xlink="http://www.w3.org/1999/xlink" xml:space="preserve" xmlns:serif="http://www.serif.com/" style="fill-rule:evenodd;clip-rule:evenodd;stroke-linejoin:round;stroke-miterlimit:1.41421;">
    <g transform="matrix(1.86047,0,0,1.86047,-377.674,-682.791)">
        <g transform="matrix(0.988506,0,0,0.454023,-111.345,443.126)">
            <rect x="318" y="242" width="696" height="696" style="fill:rgb(19,19,19);"/>
        </g>
        <g transform="matrix(16.2196,0,0,16.2196,-6740.94,-9363.84)">
            <path d="M436.705,620.198L435.49,621.27C435.063,620.676 434.629,620.379 434.186,620.379C433.971,620.379 433.795,620.437 433.658,620.552C433.521,620.667 433.453,620.797 433.453,620.942C433.453,621.086 433.502,621.223 433.6,621.352C433.733,621.524 434.134,621.893 434.803,622.459C435.429,622.983 435.808,623.313 435.941,623.449C436.274,623.785 436.51,624.107 436.649,624.413C436.788,624.72 436.857,625.055 436.857,625.418C436.857,626.125 436.613,626.709 436.124,627.17C435.635,627.631 434.998,627.862 434.212,627.862C433.598,627.862 433.063,627.711 432.607,627.41C432.152,627.11 431.762,626.637 431.437,625.992L432.816,625.16C433.231,625.922 433.708,626.303 434.248,626.303C434.53,626.303 434.766,626.221 434.958,626.057C435.15,625.893 435.246,625.703 435.246,625.489C435.246,625.293 435.173,625.098 435.029,624.903C434.884,624.707 434.565,624.408 434.072,624.006C433.133,623.24 432.526,622.65 432.252,622.234C431.978,621.818 431.841,621.403 431.841,620.989C431.841,620.391 432.069,619.878 432.525,619.45C432.981,619.023 433.543,618.809 434.211,618.809C434.642,618.809 435.051,618.908 435.441,619.108C435.83,619.307 436.251,619.67 436.705,620.198Z" style="fill:rgb(218,218,218);fill-rule:nonzero;"/>
        </g>
        <g transform="matrix(16.2196,0,0,16.2196,-6740.94,-9363.84)">
            <path d="M440.822,619.026L442.462,619.026L442.462,626.08L444.853,626.08L444.853,627.645L440.822,627.645L440.822,619.026Z" style="fill:rgb(218,218,218);fill-rule:nonzero;"/>
        </g>
        <g transform="matrix(0.456533,0,0,0.448848,213.016,513.343)">
            <rect x="730" y="618" width="292" height="57" style="fill:rgb(218,218,218);"/>
        </g>
    </g>
</svg>
